<mxfile host="app.diagrams.net" modified="2024-06-23T18:52:31.049Z" agent="Mozilla/5.0 (Windows NT 10.0; Win64; x64) AppleWebKit/537.36 (KHTML, like Gecko) Chrome/126.0.0.0 Safari/537.36" etag="N6EcT0vld3NMpKL-Eaof" version="24.6.2" type="device" pages="4">
  <diagram name="Page-1" id="gUtT-YaVpw1__JCZOKWO">
    <mxGraphModel dx="600" dy="303" grid="1" gridSize="10" guides="1" tooltips="1" connect="1" arrows="1" fold="1" page="1" pageScale="1" pageWidth="850" pageHeight="1100" math="0" shadow="0">
      <root>
        <mxCell id="0" />
        <mxCell id="1" parent="0" />
        <mxCell id="lWcYkDfaLJpIzFesHsFa-1" value="" style="rounded=0;whiteSpace=wrap;html=1;gradientDirection=west;fillColor=#dae8fc;strokeColor=none;gradientColor=#FF9CA5;" vertex="1" parent="1">
          <mxGeometry x="169" y="280" width="151" height="140" as="geometry" />
        </mxCell>
        <mxCell id="nyHVE5tShQC89JwJ489x-41" value="" style="rounded=0;whiteSpace=wrap;html=1;gradientDirection=east;fillColor=#dae8fc;strokeColor=none;gradientColor=#FF9CA5;" vertex="1" parent="1">
          <mxGeometry x="100" y="280" width="50" height="140" as="geometry" />
        </mxCell>
        <mxCell id="nyHVE5tShQC89JwJ489x-19" value="" style="endArrow=classic;startArrow=classic;html=1;rounded=0;" edge="1" parent="1">
          <mxGeometry width="50" height="50" relative="1" as="geometry">
            <mxPoint x="100" y="380" as="sourcePoint" />
            <mxPoint x="390" y="380" as="targetPoint" />
          </mxGeometry>
        </mxCell>
        <mxCell id="nyHVE5tShQC89JwJ489x-20" value="" style="endArrow=none;html=1;rounded=0;" edge="1" parent="1">
          <mxGeometry width="50" height="50" relative="1" as="geometry">
            <mxPoint x="169" y="400" as="sourcePoint" />
            <mxPoint x="169" y="300" as="targetPoint" />
          </mxGeometry>
        </mxCell>
        <mxCell id="nyHVE5tShQC89JwJ489x-21" value="" style="endArrow=none;html=1;rounded=0;" edge="1" parent="1">
          <mxGeometry width="50" height="50" relative="1" as="geometry">
            <mxPoint x="320" y="400" as="sourcePoint" />
            <mxPoint x="320" y="300" as="targetPoint" />
          </mxGeometry>
        </mxCell>
        <mxCell id="nyHVE5tShQC89JwJ489x-22" value="&lt;font style=&quot;font-size: 16px;&quot; face=&quot;Times New Roman&quot;&gt;θ1&lt;/font&gt;" style="text;html=1;align=center;verticalAlign=middle;whiteSpace=wrap;rounded=0;" vertex="1" parent="1">
          <mxGeometry x="130" y="390" width="80" height="40" as="geometry" />
        </mxCell>
        <mxCell id="nyHVE5tShQC89JwJ489x-23" value="&lt;font style=&quot;font-size: 16px;&quot; face=&quot;Times New Roman&quot;&gt;θ2&lt;/font&gt;" style="text;html=1;align=center;verticalAlign=middle;whiteSpace=wrap;rounded=0;" vertex="1" parent="1">
          <mxGeometry x="280" y="390" width="80" height="40" as="geometry" />
        </mxCell>
        <mxCell id="nyHVE5tShQC89JwJ489x-24" value="&lt;font style=&quot;font-size: 16px;&quot; face=&quot;Times New Roman&quot;&gt;-B&lt;/font&gt;" style="text;html=1;align=center;verticalAlign=middle;whiteSpace=wrap;rounded=0;" vertex="1" parent="1">
          <mxGeometry x="80" y="380" width="60" height="30" as="geometry" />
        </mxCell>
        <mxCell id="nyHVE5tShQC89JwJ489x-25" value="&lt;font style=&quot;font-size: 16px;&quot; face=&quot;Times New Roman&quot;&gt;-B&lt;/font&gt;" style="text;html=1;align=center;verticalAlign=middle;whiteSpace=wrap;rounded=0;" vertex="1" parent="1">
          <mxGeometry x="350" y="380" width="60" height="30" as="geometry" />
        </mxCell>
        <mxCell id="nyHVE5tShQC89JwJ489x-26" value="&lt;font style=&quot;font-size: 16px;&quot; face=&quot;Times New Roman&quot;&gt;-b&lt;/font&gt;" style="text;html=1;align=center;verticalAlign=middle;whiteSpace=wrap;rounded=0;" vertex="1" parent="1">
          <mxGeometry x="100" y="340" width="60" height="30" as="geometry" />
        </mxCell>
        <mxCell id="nyHVE5tShQC89JwJ489x-27" value="&lt;font style=&quot;font-size: 16px;&quot; face=&quot;Times New Roman&quot;&gt;-b&lt;/font&gt;" style="text;html=1;align=center;verticalAlign=middle;whiteSpace=wrap;rounded=0;" vertex="1" parent="1">
          <mxGeometry x="149.5" y="345" width="21" height="20" as="geometry" />
        </mxCell>
        <mxCell id="nyHVE5tShQC89JwJ489x-28" value="&lt;font style=&quot;font-size: 16px;&quot; face=&quot;Times New Roman&quot;&gt;-b&lt;/font&gt;" style="text;html=1;align=center;verticalAlign=middle;whiteSpace=wrap;rounded=0;" vertex="1" parent="1">
          <mxGeometry x="320" y="340" width="60" height="30" as="geometry" />
        </mxCell>
        <mxCell id="nyHVE5tShQC89JwJ489x-29" value="" style="endArrow=none;html=1;rounded=0;fontColor=default;strokeColor=#FF0000;" edge="1" parent="1">
          <mxGeometry width="50" height="50" relative="1" as="geometry">
            <mxPoint x="150" y="400" as="sourcePoint" />
            <mxPoint x="150" y="310" as="targetPoint" />
          </mxGeometry>
        </mxCell>
        <mxCell id="nyHVE5tShQC89JwJ489x-30" value="&lt;font style=&quot;font-size: 16px;&quot; face=&quot;Times New Roman&quot;&gt;θ&lt;/font&gt;" style="text;html=1;align=center;verticalAlign=middle;whiteSpace=wrap;rounded=0;" vertex="1" parent="1">
          <mxGeometry x="110" y="390" width="80" height="40" as="geometry" />
        </mxCell>
        <mxCell id="nyHVE5tShQC89JwJ489x-31" value="&lt;font color=&quot;#ff0000&quot; style=&quot;font-size: 16px;&quot; face=&quot;Times New Roman&quot;&gt;b&lt;/font&gt;" style="text;html=1;align=center;verticalAlign=middle;whiteSpace=wrap;rounded=0;" vertex="1" parent="1">
          <mxGeometry x="100" y="300" width="60" height="30" as="geometry" />
        </mxCell>
        <mxCell id="nyHVE5tShQC89JwJ489x-32" value="" style="endArrow=classic;startArrow=classic;html=1;rounded=0;strokeColor=#FF0000;" edge="1" parent="1">
          <mxGeometry width="50" height="50" relative="1" as="geometry">
            <mxPoint x="100" y="330" as="sourcePoint" />
            <mxPoint x="390" y="330" as="targetPoint" />
          </mxGeometry>
        </mxCell>
        <mxCell id="nyHVE5tShQC89JwJ489x-33" value="&lt;font face=&quot;Times New Roman&quot; style=&quot;font-size: 16px;&quot;&gt;-b&lt;/font&gt;" style="text;html=1;align=center;verticalAlign=middle;whiteSpace=wrap;rounded=0;fontColor=#FF0000;" vertex="1" parent="1">
          <mxGeometry x="210" y="300" width="60" height="30" as="geometry" />
        </mxCell>
        <mxCell id="nyHVE5tShQC89JwJ489x-34" value="&lt;font face=&quot;Times New Roman&quot; style=&quot;font-size: 16px;&quot;&gt;-b&lt;/font&gt;" style="text;html=1;align=center;verticalAlign=middle;whiteSpace=wrap;rounded=0;fontColor=#FF0000;" vertex="1" parent="1">
          <mxGeometry x="135" y="305" width="50" height="20" as="geometry" />
        </mxCell>
        <mxCell id="nyHVE5tShQC89JwJ489x-36" value="&lt;font face=&quot;Times New Roman&quot; style=&quot;font-size: 16px;&quot;&gt;-b&lt;/font&gt;" style="text;html=1;align=center;verticalAlign=middle;whiteSpace=wrap;rounded=0;fontColor=#FF0000;" vertex="1" parent="1">
          <mxGeometry x="320" y="300" width="60" height="30" as="geometry" />
        </mxCell>
        <mxCell id="nyHVE5tShQC89JwJ489x-37" value="&lt;font style=&quot;font-size: 16px;&quot; face=&quot;Times New Roman&quot;&gt;b&lt;/font&gt;" style="text;html=1;align=center;verticalAlign=middle;whiteSpace=wrap;rounded=0;" vertex="1" parent="1">
          <mxGeometry x="219" y="345" width="40" height="20" as="geometry" />
        </mxCell>
      </root>
    </mxGraphModel>
  </diagram>
  <diagram name="Copy of Page-1" id="jTOB4Yc5bs0CNrgIVbDQ">
    <mxGraphModel dx="600" dy="303" grid="1" gridSize="10" guides="1" tooltips="1" connect="1" arrows="1" fold="1" page="1" pageScale="1" pageWidth="850" pageHeight="1100" math="0" shadow="0">
      <root>
        <mxCell id="Fskw6a6bDLBfPdlhb5IX-0" />
        <mxCell id="Fskw6a6bDLBfPdlhb5IX-1" parent="Fskw6a6bDLBfPdlhb5IX-0" />
        <mxCell id="ZWznGt_Xg1seMsNde3O_-0" value="" style="rounded=0;whiteSpace=wrap;html=1;gradientDirection=west;fillColor=#dae8fc;strokeColor=none;gradientColor=#FF9CA5;" vertex="1" parent="Fskw6a6bDLBfPdlhb5IX-1">
          <mxGeometry x="219" y="280" width="101" height="140" as="geometry" />
        </mxCell>
        <mxCell id="Fskw6a6bDLBfPdlhb5IX-2" value="" style="rounded=0;whiteSpace=wrap;html=1;gradientDirection=east;fillColor=#dae8fc;strokeColor=none;gradientColor=#FF9CA5;" vertex="1" parent="Fskw6a6bDLBfPdlhb5IX-1">
          <mxGeometry x="100" y="280" width="70" height="140" as="geometry" />
        </mxCell>
        <mxCell id="Fskw6a6bDLBfPdlhb5IX-3" value="" style="endArrow=classic;startArrow=classic;html=1;rounded=0;" edge="1" parent="Fskw6a6bDLBfPdlhb5IX-1">
          <mxGeometry width="50" height="50" relative="1" as="geometry">
            <mxPoint x="100" y="380" as="sourcePoint" />
            <mxPoint x="390" y="380" as="targetPoint" />
          </mxGeometry>
        </mxCell>
        <mxCell id="Fskw6a6bDLBfPdlhb5IX-4" value="" style="endArrow=none;html=1;rounded=0;" edge="1" parent="Fskw6a6bDLBfPdlhb5IX-1">
          <mxGeometry width="50" height="50" relative="1" as="geometry">
            <mxPoint x="169" y="400" as="sourcePoint" />
            <mxPoint x="169" y="290" as="targetPoint" />
          </mxGeometry>
        </mxCell>
        <mxCell id="Fskw6a6bDLBfPdlhb5IX-5" value="" style="endArrow=none;html=1;rounded=0;" edge="1" parent="Fskw6a6bDLBfPdlhb5IX-1">
          <mxGeometry width="50" height="50" relative="1" as="geometry">
            <mxPoint x="320" y="400" as="sourcePoint" />
            <mxPoint x="320" y="300" as="targetPoint" />
          </mxGeometry>
        </mxCell>
        <mxCell id="Fskw6a6bDLBfPdlhb5IX-6" value="&lt;font style=&quot;font-size: 16px;&quot; face=&quot;Times New Roman&quot;&gt;θ1&lt;/font&gt;" style="text;html=1;align=center;verticalAlign=middle;whiteSpace=wrap;rounded=0;" vertex="1" parent="Fskw6a6bDLBfPdlhb5IX-1">
          <mxGeometry x="130" y="390" width="80" height="40" as="geometry" />
        </mxCell>
        <mxCell id="Fskw6a6bDLBfPdlhb5IX-7" value="&lt;font style=&quot;font-size: 16px;&quot; face=&quot;Times New Roman&quot;&gt;θ2&lt;/font&gt;" style="text;html=1;align=center;verticalAlign=middle;whiteSpace=wrap;rounded=0;" vertex="1" parent="Fskw6a6bDLBfPdlhb5IX-1">
          <mxGeometry x="280" y="390" width="80" height="40" as="geometry" />
        </mxCell>
        <mxCell id="Fskw6a6bDLBfPdlhb5IX-8" value="&lt;font style=&quot;font-size: 16px;&quot; face=&quot;Times New Roman&quot;&gt;-B&lt;/font&gt;" style="text;html=1;align=center;verticalAlign=middle;whiteSpace=wrap;rounded=0;" vertex="1" parent="Fskw6a6bDLBfPdlhb5IX-1">
          <mxGeometry x="80" y="380" width="60" height="30" as="geometry" />
        </mxCell>
        <mxCell id="Fskw6a6bDLBfPdlhb5IX-9" value="&lt;font style=&quot;font-size: 16px;&quot; face=&quot;Times New Roman&quot;&gt;-B&lt;/font&gt;" style="text;html=1;align=center;verticalAlign=middle;whiteSpace=wrap;rounded=0;" vertex="1" parent="Fskw6a6bDLBfPdlhb5IX-1">
          <mxGeometry x="350" y="380" width="60" height="30" as="geometry" />
        </mxCell>
        <mxCell id="Fskw6a6bDLBfPdlhb5IX-10" value="&lt;font style=&quot;font-size: 16px;&quot; face=&quot;Times New Roman&quot;&gt;-b&lt;/font&gt;" style="text;html=1;align=center;verticalAlign=middle;whiteSpace=wrap;rounded=0;" vertex="1" parent="Fskw6a6bDLBfPdlhb5IX-1">
          <mxGeometry x="100" y="340" width="60" height="30" as="geometry" />
        </mxCell>
        <mxCell id="Fskw6a6bDLBfPdlhb5IX-11" value="&lt;font style=&quot;font-size: 16px;&quot; face=&quot;Times New Roman&quot;&gt;b&lt;/font&gt;" style="text;html=1;align=center;verticalAlign=middle;whiteSpace=wrap;rounded=0;" vertex="1" parent="Fskw6a6bDLBfPdlhb5IX-1">
          <mxGeometry x="183.5" y="345" width="21" height="20" as="geometry" />
        </mxCell>
        <mxCell id="Fskw6a6bDLBfPdlhb5IX-12" value="&lt;font style=&quot;font-size: 16px;&quot; face=&quot;Times New Roman&quot;&gt;-b&lt;/font&gt;" style="text;html=1;align=center;verticalAlign=middle;whiteSpace=wrap;rounded=0;" vertex="1" parent="Fskw6a6bDLBfPdlhb5IX-1">
          <mxGeometry x="320" y="340" width="60" height="30" as="geometry" />
        </mxCell>
        <mxCell id="Fskw6a6bDLBfPdlhb5IX-13" value="" style="endArrow=none;html=1;rounded=0;fontColor=default;strokeColor=#FF0000;entryX=0.011;entryY=0.094;entryDx=0;entryDy=0;entryPerimeter=0;" edge="1" parent="Fskw6a6bDLBfPdlhb5IX-1" target="ZWznGt_Xg1seMsNde3O_-0">
          <mxGeometry width="50" height="50" relative="1" as="geometry">
            <mxPoint x="219" y="400" as="sourcePoint" />
            <mxPoint x="219" y="310" as="targetPoint" />
          </mxGeometry>
        </mxCell>
        <mxCell id="Fskw6a6bDLBfPdlhb5IX-14" value="&lt;font style=&quot;font-size: 16px;&quot; face=&quot;Times New Roman&quot;&gt;θ&lt;/font&gt;" style="text;html=1;align=center;verticalAlign=middle;whiteSpace=wrap;rounded=0;" vertex="1" parent="Fskw6a6bDLBfPdlhb5IX-1">
          <mxGeometry x="179" y="390" width="80" height="40" as="geometry" />
        </mxCell>
        <mxCell id="Fskw6a6bDLBfPdlhb5IX-15" value="&lt;font color=&quot;#ff0000&quot; style=&quot;font-size: 16px;&quot; face=&quot;Times New Roman&quot;&gt;b&lt;/font&gt;" style="text;html=1;align=center;verticalAlign=middle;whiteSpace=wrap;rounded=0;" vertex="1" parent="Fskw6a6bDLBfPdlhb5IX-1">
          <mxGeometry x="100" y="300" width="60" height="30" as="geometry" />
        </mxCell>
        <mxCell id="Fskw6a6bDLBfPdlhb5IX-16" value="" style="endArrow=classic;startArrow=classic;html=1;rounded=0;strokeColor=#FF0000;" edge="1" parent="Fskw6a6bDLBfPdlhb5IX-1">
          <mxGeometry width="50" height="50" relative="1" as="geometry">
            <mxPoint x="100" y="330" as="sourcePoint" />
            <mxPoint x="390" y="330" as="targetPoint" />
          </mxGeometry>
        </mxCell>
        <mxCell id="Fskw6a6bDLBfPdlhb5IX-17" value="&lt;font face=&quot;Times New Roman&quot; style=&quot;font-size: 16px;&quot;&gt;-b&lt;/font&gt;" style="text;html=1;align=center;verticalAlign=middle;whiteSpace=wrap;rounded=0;fontColor=#FF0000;" vertex="1" parent="Fskw6a6bDLBfPdlhb5IX-1">
          <mxGeometry x="210" y="300" width="60" height="30" as="geometry" />
        </mxCell>
        <mxCell id="Fskw6a6bDLBfPdlhb5IX-18" value="&lt;font face=&quot;Times New Roman&quot; style=&quot;font-size: 16px;&quot;&gt;b&lt;/font&gt;" style="text;html=1;align=center;verticalAlign=middle;whiteSpace=wrap;rounded=0;fontColor=#FF0000;" vertex="1" parent="Fskw6a6bDLBfPdlhb5IX-1">
          <mxGeometry x="169" y="305" width="50" height="20" as="geometry" />
        </mxCell>
        <mxCell id="Fskw6a6bDLBfPdlhb5IX-19" value="&lt;font face=&quot;Times New Roman&quot; style=&quot;font-size: 16px;&quot;&gt;-b&lt;/font&gt;" style="text;html=1;align=center;verticalAlign=middle;whiteSpace=wrap;rounded=0;fontColor=#FF0000;" vertex="1" parent="Fskw6a6bDLBfPdlhb5IX-1">
          <mxGeometry x="320" y="300" width="60" height="30" as="geometry" />
        </mxCell>
        <mxCell id="Fskw6a6bDLBfPdlhb5IX-20" value="&lt;font style=&quot;font-size: 16px;&quot; face=&quot;Times New Roman&quot;&gt;b&lt;/font&gt;" style="text;html=1;align=center;verticalAlign=middle;whiteSpace=wrap;rounded=0;" vertex="1" parent="Fskw6a6bDLBfPdlhb5IX-1">
          <mxGeometry x="219" y="345" width="40" height="20" as="geometry" />
        </mxCell>
      </root>
    </mxGraphModel>
  </diagram>
  <diagram name="Copy of Copy of Page-1" id="aPIBZa7orxw_Jx27WdYE">
    <mxGraphModel dx="600" dy="303" grid="1" gridSize="10" guides="1" tooltips="1" connect="1" arrows="1" fold="1" page="1" pageScale="1" pageWidth="850" pageHeight="1100" math="0" shadow="0">
      <root>
        <mxCell id="pTRQWoVpK5n9lOhBUGl8-0" />
        <mxCell id="pTRQWoVpK5n9lOhBUGl8-1" parent="pTRQWoVpK5n9lOhBUGl8-0" />
        <mxCell id="pTRQWoVpK5n9lOhBUGl8-2" value="" style="rounded=0;whiteSpace=wrap;html=1;gradientDirection=west;fillColor=#dae8fc;strokeColor=none;gradientColor=#FF9CA5;" vertex="1" parent="pTRQWoVpK5n9lOhBUGl8-1">
          <mxGeometry x="319.5" y="280" width="30.5" height="140" as="geometry" />
        </mxCell>
        <mxCell id="pTRQWoVpK5n9lOhBUGl8-3" value="" style="rounded=0;whiteSpace=wrap;html=1;gradientDirection=east;fillColor=#dae8fc;strokeColor=none;gradientColor=#FF9CA5;" vertex="1" parent="pTRQWoVpK5n9lOhBUGl8-1">
          <mxGeometry x="100" y="280" width="70" height="140" as="geometry" />
        </mxCell>
        <mxCell id="pTRQWoVpK5n9lOhBUGl8-4" value="" style="endArrow=classic;startArrow=classic;html=1;rounded=0;" edge="1" parent="pTRQWoVpK5n9lOhBUGl8-1">
          <mxGeometry width="50" height="50" relative="1" as="geometry">
            <mxPoint x="100" y="380" as="sourcePoint" />
            <mxPoint x="390" y="380" as="targetPoint" />
          </mxGeometry>
        </mxCell>
        <mxCell id="pTRQWoVpK5n9lOhBUGl8-5" value="" style="endArrow=none;html=1;rounded=0;" edge="1" parent="pTRQWoVpK5n9lOhBUGl8-1">
          <mxGeometry width="50" height="50" relative="1" as="geometry">
            <mxPoint x="169" y="400" as="sourcePoint" />
            <mxPoint x="169" y="290" as="targetPoint" />
          </mxGeometry>
        </mxCell>
        <mxCell id="pTRQWoVpK5n9lOhBUGl8-6" value="" style="endArrow=none;html=1;rounded=0;" edge="1" parent="pTRQWoVpK5n9lOhBUGl8-1">
          <mxGeometry width="50" height="50" relative="1" as="geometry">
            <mxPoint x="320" y="400" as="sourcePoint" />
            <mxPoint x="320" y="300" as="targetPoint" />
          </mxGeometry>
        </mxCell>
        <mxCell id="pTRQWoVpK5n9lOhBUGl8-7" value="&lt;font style=&quot;font-size: 16px;&quot; face=&quot;Times New Roman&quot;&gt;θ1&lt;/font&gt;" style="text;html=1;align=center;verticalAlign=middle;whiteSpace=wrap;rounded=0;" vertex="1" parent="pTRQWoVpK5n9lOhBUGl8-1">
          <mxGeometry x="130" y="390" width="80" height="40" as="geometry" />
        </mxCell>
        <mxCell id="pTRQWoVpK5n9lOhBUGl8-8" value="&lt;font style=&quot;font-size: 16px;&quot; face=&quot;Times New Roman&quot;&gt;θ2&lt;/font&gt;" style="text;html=1;align=center;verticalAlign=middle;whiteSpace=wrap;rounded=0;" vertex="1" parent="pTRQWoVpK5n9lOhBUGl8-1">
          <mxGeometry x="280" y="390" width="80" height="40" as="geometry" />
        </mxCell>
        <mxCell id="pTRQWoVpK5n9lOhBUGl8-9" value="&lt;font style=&quot;font-size: 16px;&quot; face=&quot;Times New Roman&quot;&gt;-B&lt;/font&gt;" style="text;html=1;align=center;verticalAlign=middle;whiteSpace=wrap;rounded=0;" vertex="1" parent="pTRQWoVpK5n9lOhBUGl8-1">
          <mxGeometry x="80" y="380" width="60" height="30" as="geometry" />
        </mxCell>
        <mxCell id="pTRQWoVpK5n9lOhBUGl8-10" value="&lt;font style=&quot;font-size: 16px;&quot; face=&quot;Times New Roman&quot;&gt;-B&lt;/font&gt;" style="text;html=1;align=center;verticalAlign=middle;whiteSpace=wrap;rounded=0;" vertex="1" parent="pTRQWoVpK5n9lOhBUGl8-1">
          <mxGeometry x="350" y="380" width="60" height="30" as="geometry" />
        </mxCell>
        <mxCell id="pTRQWoVpK5n9lOhBUGl8-11" value="&lt;font style=&quot;font-size: 16px;&quot; face=&quot;Times New Roman&quot;&gt;-b&lt;/font&gt;" style="text;html=1;align=center;verticalAlign=middle;whiteSpace=wrap;rounded=0;" vertex="1" parent="pTRQWoVpK5n9lOhBUGl8-1">
          <mxGeometry x="100" y="340" width="60" height="30" as="geometry" />
        </mxCell>
        <mxCell id="pTRQWoVpK5n9lOhBUGl8-12" value="&lt;font style=&quot;font-size: 16px;&quot; face=&quot;Times New Roman&quot;&gt;b&lt;/font&gt;" style="text;html=1;align=center;verticalAlign=middle;whiteSpace=wrap;rounded=0;" vertex="1" parent="pTRQWoVpK5n9lOhBUGl8-1">
          <mxGeometry x="183.5" y="345" width="21" height="20" as="geometry" />
        </mxCell>
        <mxCell id="pTRQWoVpK5n9lOhBUGl8-13" value="&lt;font style=&quot;font-size: 16px;&quot; face=&quot;Times New Roman&quot;&gt;-b&lt;/font&gt;" style="text;html=1;align=center;verticalAlign=middle;whiteSpace=wrap;rounded=0;" vertex="1" parent="pTRQWoVpK5n9lOhBUGl8-1">
          <mxGeometry x="340" y="340" width="60" height="30" as="geometry" />
        </mxCell>
        <mxCell id="pTRQWoVpK5n9lOhBUGl8-14" value="" style="endArrow=none;html=1;rounded=0;fontColor=default;strokeColor=#FF0000;" edge="1" parent="pTRQWoVpK5n9lOhBUGl8-1">
          <mxGeometry width="50" height="50" relative="1" as="geometry">
            <mxPoint x="348" y="401" as="sourcePoint" />
            <mxPoint x="348" y="291" as="targetPoint" />
          </mxGeometry>
        </mxCell>
        <mxCell id="pTRQWoVpK5n9lOhBUGl8-15" value="&lt;font style=&quot;font-size: 16px;&quot; face=&quot;Times New Roman&quot;&gt;θ&lt;/font&gt;" style="text;html=1;align=center;verticalAlign=middle;whiteSpace=wrap;rounded=0;" vertex="1" parent="pTRQWoVpK5n9lOhBUGl8-1">
          <mxGeometry x="310" y="390" width="80" height="40" as="geometry" />
        </mxCell>
        <mxCell id="pTRQWoVpK5n9lOhBUGl8-16" value="&lt;font color=&quot;#ff0000&quot; style=&quot;font-size: 16px;&quot; face=&quot;Times New Roman&quot;&gt;b&lt;/font&gt;" style="text;html=1;align=center;verticalAlign=middle;whiteSpace=wrap;rounded=0;" vertex="1" parent="pTRQWoVpK5n9lOhBUGl8-1">
          <mxGeometry x="100" y="300" width="60" height="30" as="geometry" />
        </mxCell>
        <mxCell id="pTRQWoVpK5n9lOhBUGl8-17" value="" style="endArrow=classic;startArrow=classic;html=1;rounded=0;strokeColor=#FF0000;" edge="1" parent="pTRQWoVpK5n9lOhBUGl8-1">
          <mxGeometry width="50" height="50" relative="1" as="geometry">
            <mxPoint x="100" y="330" as="sourcePoint" />
            <mxPoint x="390" y="330" as="targetPoint" />
          </mxGeometry>
        </mxCell>
        <mxCell id="pTRQWoVpK5n9lOhBUGl8-19" value="&lt;font face=&quot;Times New Roman&quot; style=&quot;font-size: 16px;&quot;&gt;b&lt;/font&gt;" style="text;html=1;align=center;verticalAlign=middle;whiteSpace=wrap;rounded=0;fontColor=#FF0000;" vertex="1" parent="pTRQWoVpK5n9lOhBUGl8-1">
          <mxGeometry x="169" y="305" width="50" height="20" as="geometry" />
        </mxCell>
        <mxCell id="pTRQWoVpK5n9lOhBUGl8-20" value="&lt;font face=&quot;Times New Roman&quot; style=&quot;font-size: 16px;&quot;&gt;-b&lt;/font&gt;" style="text;html=1;align=center;verticalAlign=middle;whiteSpace=wrap;rounded=0;fontColor=#FF0000;" vertex="1" parent="pTRQWoVpK5n9lOhBUGl8-1">
          <mxGeometry x="340" y="300" width="60" height="30" as="geometry" />
        </mxCell>
        <mxCell id="pTRQWoVpK5n9lOhBUGl8-21" value="&lt;font style=&quot;font-size: 16px;&quot; face=&quot;Times New Roman&quot;&gt;-b&lt;/font&gt;" style="text;html=1;align=center;verticalAlign=middle;whiteSpace=wrap;rounded=0;" vertex="1" parent="pTRQWoVpK5n9lOhBUGl8-1">
          <mxGeometry x="310" y="345" width="40" height="20" as="geometry" />
        </mxCell>
        <mxCell id="tK8nyUtUlY7ykdjudgj8-0" value="&lt;font face=&quot;Times New Roman&quot; style=&quot;font-size: 16px;&quot;&gt;b&lt;/font&gt;" style="text;html=1;align=center;verticalAlign=middle;whiteSpace=wrap;rounded=0;fontColor=#FF0000;" vertex="1" parent="pTRQWoVpK5n9lOhBUGl8-1">
          <mxGeometry x="305" y="305" width="50" height="20" as="geometry" />
        </mxCell>
      </root>
    </mxGraphModel>
  </diagram>
  <diagram name="Copy of Page-1" id="HZbKeAQu1w7XW7My9TSz">
    <mxGraphModel grid="1" page="1" gridSize="10" guides="1" tooltips="1" connect="1" arrows="1" fold="1" pageScale="1" pageWidth="850" pageHeight="1100" math="0" shadow="0">
      <root>
        <mxCell id="lUcc0F6BoWHHhzVzZQs4-0" />
        <mxCell id="lUcc0F6BoWHHhzVzZQs4-1" parent="lUcc0F6BoWHHhzVzZQs4-0" />
        <mxCell id="lUcc0F6BoWHHhzVzZQs4-2" value="" style="rounded=0;whiteSpace=wrap;html=1;gradientDirection=east;fillColor=#dae8fc;strokeColor=none;gradientColor=#FF9CA5;" vertex="1" parent="lUcc0F6BoWHHhzVzZQs4-1">
          <mxGeometry x="100" y="280" width="220" height="140" as="geometry" />
        </mxCell>
        <mxCell id="lUcc0F6BoWHHhzVzZQs4-3" value="" style="endArrow=classic;startArrow=classic;html=1;rounded=0;" edge="1" parent="lUcc0F6BoWHHhzVzZQs4-1">
          <mxGeometry width="50" height="50" relative="1" as="geometry">
            <mxPoint x="100" y="240" as="sourcePoint" />
            <mxPoint x="390" y="240" as="targetPoint" />
          </mxGeometry>
        </mxCell>
        <mxCell id="lUcc0F6BoWHHhzVzZQs4-4" value="" style="endArrow=none;html=1;rounded=0;" edge="1" parent="lUcc0F6BoWHHhzVzZQs4-1">
          <mxGeometry width="50" height="50" relative="1" as="geometry">
            <mxPoint x="170" y="260" as="sourcePoint" />
            <mxPoint x="170" y="220" as="targetPoint" />
          </mxGeometry>
        </mxCell>
        <mxCell id="lUcc0F6BoWHHhzVzZQs4-5" value="" style="endArrow=none;html=1;rounded=0;" edge="1" parent="lUcc0F6BoWHHhzVzZQs4-1">
          <mxGeometry width="50" height="50" relative="1" as="geometry">
            <mxPoint x="320" y="260" as="sourcePoint" />
            <mxPoint x="320" y="220" as="targetPoint" />
          </mxGeometry>
        </mxCell>
        <mxCell id="lUcc0F6BoWHHhzVzZQs4-6" value="&lt;font style=&quot;font-size: 16px;&quot; face=&quot;Times New Roman&quot;&gt;θ1&lt;/font&gt;" style="text;html=1;align=center;verticalAlign=middle;whiteSpace=wrap;rounded=0;" vertex="1" parent="lUcc0F6BoWHHhzVzZQs4-1">
          <mxGeometry x="130" y="180" width="80" height="40" as="geometry" />
        </mxCell>
        <mxCell id="lUcc0F6BoWHHhzVzZQs4-7" value="&lt;font style=&quot;font-size: 16px;&quot; face=&quot;Times New Roman&quot;&gt;θ2&lt;/font&gt;" style="text;html=1;align=center;verticalAlign=middle;whiteSpace=wrap;rounded=0;" vertex="1" parent="lUcc0F6BoWHHhzVzZQs4-1">
          <mxGeometry x="280" y="180" width="80" height="40" as="geometry" />
        </mxCell>
        <mxCell id="lUcc0F6BoWHHhzVzZQs4-8" value="&lt;font style=&quot;font-size: 16px;&quot; face=&quot;Times New Roman&quot;&gt;-B&lt;/font&gt;" style="text;html=1;align=center;verticalAlign=middle;whiteSpace=wrap;rounded=0;" vertex="1" parent="lUcc0F6BoWHHhzVzZQs4-1">
          <mxGeometry x="80" y="240" width="60" height="30" as="geometry" />
        </mxCell>
        <mxCell id="lUcc0F6BoWHHhzVzZQs4-9" value="&lt;font style=&quot;font-size: 16px;&quot; face=&quot;Times New Roman&quot;&gt;-B&lt;/font&gt;" style="text;html=1;align=center;verticalAlign=middle;whiteSpace=wrap;rounded=0;" vertex="1" parent="lUcc0F6BoWHHhzVzZQs4-1">
          <mxGeometry x="350" y="240" width="60" height="30" as="geometry" />
        </mxCell>
        <mxCell id="lUcc0F6BoWHHhzVzZQs4-10" value="&lt;font style=&quot;font-size: 16px;&quot; face=&quot;Times New Roman&quot;&gt;-b&lt;/font&gt;" style="text;html=1;align=center;verticalAlign=middle;whiteSpace=wrap;rounded=0;" vertex="1" parent="lUcc0F6BoWHHhzVzZQs4-1">
          <mxGeometry x="100" y="200" width="60" height="30" as="geometry" />
        </mxCell>
        <mxCell id="lUcc0F6BoWHHhzVzZQs4-11" value="&lt;font style=&quot;font-size: 16px;&quot; face=&quot;Times New Roman&quot;&gt;b&lt;/font&gt;" style="text;html=1;align=center;verticalAlign=middle;whiteSpace=wrap;rounded=0;" vertex="1" parent="lUcc0F6BoWHHhzVzZQs4-1">
          <mxGeometry x="210" y="200" width="60" height="30" as="geometry" />
        </mxCell>
        <mxCell id="lUcc0F6BoWHHhzVzZQs4-12" value="&lt;font style=&quot;font-size: 16px;&quot; face=&quot;Times New Roman&quot;&gt;-b&lt;/font&gt;" style="text;html=1;align=center;verticalAlign=middle;whiteSpace=wrap;rounded=0;" vertex="1" parent="lUcc0F6BoWHHhzVzZQs4-1">
          <mxGeometry x="320" y="200" width="60" height="30" as="geometry" />
        </mxCell>
        <mxCell id="lUcc0F6BoWHHhzVzZQs4-13" value="" style="endArrow=classic;startArrow=classic;html=1;rounded=0;" edge="1" parent="lUcc0F6BoWHHhzVzZQs4-1">
          <mxGeometry width="50" height="50" relative="1" as="geometry">
            <mxPoint x="100" y="380" as="sourcePoint" />
            <mxPoint x="390" y="380" as="targetPoint" />
          </mxGeometry>
        </mxCell>
        <mxCell id="lUcc0F6BoWHHhzVzZQs4-14" value="" style="endArrow=none;html=1;rounded=0;" edge="1" parent="lUcc0F6BoWHHhzVzZQs4-1">
          <mxGeometry width="50" height="50" relative="1" as="geometry">
            <mxPoint x="169" y="400" as="sourcePoint" />
            <mxPoint x="169" y="290" as="targetPoint" />
          </mxGeometry>
        </mxCell>
        <mxCell id="lUcc0F6BoWHHhzVzZQs4-15" value="" style="endArrow=none;html=1;rounded=0;" edge="1" parent="lUcc0F6BoWHHhzVzZQs4-1">
          <mxGeometry width="50" height="50" relative="1" as="geometry">
            <mxPoint x="320" y="400" as="sourcePoint" />
            <mxPoint x="320" y="300" as="targetPoint" />
          </mxGeometry>
        </mxCell>
        <mxCell id="lUcc0F6BoWHHhzVzZQs4-16" value="&lt;font style=&quot;font-size: 16px;&quot; face=&quot;Times New Roman&quot;&gt;θ1&lt;/font&gt;" style="text;html=1;align=center;verticalAlign=middle;whiteSpace=wrap;rounded=0;" vertex="1" parent="lUcc0F6BoWHHhzVzZQs4-1">
          <mxGeometry x="130" y="390" width="80" height="40" as="geometry" />
        </mxCell>
        <mxCell id="lUcc0F6BoWHHhzVzZQs4-17" value="&lt;font style=&quot;font-size: 16px;&quot; face=&quot;Times New Roman&quot;&gt;θ2&lt;/font&gt;" style="text;html=1;align=center;verticalAlign=middle;whiteSpace=wrap;rounded=0;" vertex="1" parent="lUcc0F6BoWHHhzVzZQs4-1">
          <mxGeometry x="280" y="390" width="80" height="40" as="geometry" />
        </mxCell>
        <mxCell id="lUcc0F6BoWHHhzVzZQs4-18" value="&lt;font style=&quot;font-size: 16px;&quot; face=&quot;Times New Roman&quot;&gt;-B&lt;/font&gt;" style="text;html=1;align=center;verticalAlign=middle;whiteSpace=wrap;rounded=0;" vertex="1" parent="lUcc0F6BoWHHhzVzZQs4-1">
          <mxGeometry x="80" y="380" width="60" height="30" as="geometry" />
        </mxCell>
        <mxCell id="lUcc0F6BoWHHhzVzZQs4-19" value="&lt;font style=&quot;font-size: 16px;&quot; face=&quot;Times New Roman&quot;&gt;-B&lt;/font&gt;" style="text;html=1;align=center;verticalAlign=middle;whiteSpace=wrap;rounded=0;" vertex="1" parent="lUcc0F6BoWHHhzVzZQs4-1">
          <mxGeometry x="350" y="380" width="60" height="30" as="geometry" />
        </mxCell>
        <mxCell id="lUcc0F6BoWHHhzVzZQs4-20" value="&lt;font style=&quot;font-size: 16px;&quot; face=&quot;Times New Roman&quot;&gt;-b&lt;/font&gt;" style="text;html=1;align=center;verticalAlign=middle;whiteSpace=wrap;rounded=0;" vertex="1" parent="lUcc0F6BoWHHhzVzZQs4-1">
          <mxGeometry x="100" y="340" width="60" height="30" as="geometry" />
        </mxCell>
        <mxCell id="lUcc0F6BoWHHhzVzZQs4-21" value="&lt;font style=&quot;font-size: 16px;&quot; face=&quot;Times New Roman&quot;&gt;b&lt;/font&gt;" style="text;html=1;align=center;verticalAlign=middle;whiteSpace=wrap;rounded=0;" vertex="1" parent="lUcc0F6BoWHHhzVzZQs4-1">
          <mxGeometry x="149.5" y="345" width="21" height="20" as="geometry" />
        </mxCell>
        <mxCell id="lUcc0F6BoWHHhzVzZQs4-22" value="&lt;font style=&quot;font-size: 16px;&quot; face=&quot;Times New Roman&quot;&gt;-b&lt;/font&gt;" style="text;html=1;align=center;verticalAlign=middle;whiteSpace=wrap;rounded=0;" vertex="1" parent="lUcc0F6BoWHHhzVzZQs4-1">
          <mxGeometry x="320" y="340" width="60" height="30" as="geometry" />
        </mxCell>
        <mxCell id="lUcc0F6BoWHHhzVzZQs4-23" value="" style="endArrow=none;html=1;rounded=0;fontColor=default;strokeColor=#FF0000;" edge="1" parent="lUcc0F6BoWHHhzVzZQs4-1">
          <mxGeometry width="50" height="50" relative="1" as="geometry">
            <mxPoint x="150" y="400" as="sourcePoint" />
            <mxPoint x="150" y="310" as="targetPoint" />
          </mxGeometry>
        </mxCell>
        <mxCell id="lUcc0F6BoWHHhzVzZQs4-24" value="&lt;font style=&quot;font-size: 16px;&quot; face=&quot;Times New Roman&quot;&gt;θ&lt;/font&gt;" style="text;html=1;align=center;verticalAlign=middle;whiteSpace=wrap;rounded=0;" vertex="1" parent="lUcc0F6BoWHHhzVzZQs4-1">
          <mxGeometry x="110" y="390" width="80" height="40" as="geometry" />
        </mxCell>
        <mxCell id="lUcc0F6BoWHHhzVzZQs4-25" value="&lt;font color=&quot;#ff0000&quot; style=&quot;font-size: 16px;&quot; face=&quot;Times New Roman&quot;&gt;b&lt;/font&gt;" style="text;html=1;align=center;verticalAlign=middle;whiteSpace=wrap;rounded=0;" vertex="1" parent="lUcc0F6BoWHHhzVzZQs4-1">
          <mxGeometry x="100" y="300" width="60" height="30" as="geometry" />
        </mxCell>
        <mxCell id="lUcc0F6BoWHHhzVzZQs4-26" value="" style="endArrow=classic;startArrow=classic;html=1;rounded=0;strokeColor=#FF0000;" edge="1" parent="lUcc0F6BoWHHhzVzZQs4-1">
          <mxGeometry width="50" height="50" relative="1" as="geometry">
            <mxPoint x="100" y="330" as="sourcePoint" />
            <mxPoint x="390" y="330" as="targetPoint" />
          </mxGeometry>
        </mxCell>
        <mxCell id="lUcc0F6BoWHHhzVzZQs4-27" value="&lt;font face=&quot;Times New Roman&quot; style=&quot;font-size: 16px;&quot;&gt;-b&lt;/font&gt;" style="text;html=1;align=center;verticalAlign=middle;whiteSpace=wrap;rounded=0;fontColor=#FF0000;" vertex="1" parent="lUcc0F6BoWHHhzVzZQs4-1">
          <mxGeometry x="210" y="300" width="60" height="30" as="geometry" />
        </mxCell>
        <mxCell id="lUcc0F6BoWHHhzVzZQs4-28" value="&lt;font face=&quot;Times New Roman&quot; style=&quot;font-size: 16px;&quot;&gt;-b&lt;/font&gt;" style="text;html=1;align=center;verticalAlign=middle;whiteSpace=wrap;rounded=0;fontColor=#FF0000;" vertex="1" parent="lUcc0F6BoWHHhzVzZQs4-1">
          <mxGeometry x="135" y="305" width="50" height="20" as="geometry" />
        </mxCell>
        <mxCell id="lUcc0F6BoWHHhzVzZQs4-29" value="&lt;font face=&quot;Times New Roman&quot; style=&quot;font-size: 16px;&quot;&gt;-b&lt;/font&gt;" style="text;html=1;align=center;verticalAlign=middle;whiteSpace=wrap;rounded=0;fontColor=#FF0000;" vertex="1" parent="lUcc0F6BoWHHhzVzZQs4-1">
          <mxGeometry x="320" y="300" width="60" height="30" as="geometry" />
        </mxCell>
        <mxCell id="lUcc0F6BoWHHhzVzZQs4-30" value="&lt;font style=&quot;font-size: 16px;&quot; face=&quot;Times New Roman&quot;&gt;b&lt;/font&gt;" style="text;html=1;align=center;verticalAlign=middle;whiteSpace=wrap;rounded=0;" vertex="1" parent="lUcc0F6BoWHHhzVzZQs4-1">
          <mxGeometry x="219" y="345" width="40" height="20" as="geometry" />
        </mxCell>
      </root>
    </mxGraphModel>
  </diagram>
</mxfile>
